<svg width="45" height="46" viewBox="0 0 45 46" fill="none" xmlns="http://www.w3.org/2000/svg">
<path d="M45 16.5C45 15.9477 44.5523 15.5 44 15.5H1C0.447715 15.5 0 15.9477 0 16.5V27.625C0 28.1773 0.447715 28.625 1 28.625H44C44.5523 28.625 45 28.1773 45 27.625V16.5ZM5.07822 24.875C4.41309 24.875 3.93332 24.2378 4.11719 23.5985L5.15999 19.9735C5.28323 19.5451 5.6752 19.25 6.12101 19.25H6.43053C7.09566 19.25 7.57544 19.8872 7.39156 20.5265L6.34877 24.1515C6.22552 24.5799 5.83355 24.875 5.38774 24.875H5.07822ZM8.95197 24.875C8.28684 24.875 7.80706 24.2378 7.99094 23.5985L9.03374 19.9735C9.15698 19.5451 9.54895 19.25 9.99476 19.25H10.3043C10.9694 19.25 11.4492 19.8872 11.2653 20.5265L10.2225 24.1515C10.0993 24.5799 9.7073 24.875 9.26149 24.875H8.95197ZM12.8276 24.875C12.1625 24.875 11.6827 24.2378 11.8666 23.5985L12.9094 19.9735C13.0326 19.5451 13.4246 19.25 13.8704 19.25H14.1795C14.8447 19.25 15.3245 19.8875 15.1404 20.5268L14.0964 24.1518C13.9731 24.58 13.5812 24.875 13.1355 24.875H12.8276ZM16.7013 24.875C16.0362 24.875 15.5564 24.2378 15.7403 23.5985L16.7831 19.9735C16.9064 19.5451 17.2983 19.25 17.7441 19.25H18.0518C18.7169 19.25 19.1967 19.8872 19.0128 20.5265L17.97 24.1515C17.8468 24.5799 17.4548 24.875 17.009 24.875H16.7013ZM21.8458 24.1518C21.7224 24.58 21.3306 24.875 20.8849 24.875H20.577C19.9118 24.875 19.4321 24.2378 19.6159 23.5985L20.6587 19.9735C20.782 19.5451 21.174 19.25 21.6198 19.25H21.9289C22.5941 19.25 23.0739 19.8875 22.8898 20.5268L21.8458 24.1518ZM39.375 23.9375C38.34 23.9375 37.5 23.0975 37.5 22.0625C37.5 21.0275 38.34 20.1875 39.375 20.1875C40.4119 20.1875 41.25 21.0275 41.25 22.0625C41.25 23.0975 40.4119 23.9375 39.375 23.9375ZM45 33.375C45 32.8227 44.5523 32.375 44 32.375H1C0.447715 32.375 0 32.8227 0 33.375V44.5C0 45.0523 0.447715 45.5 1 45.5H44C44.5523 45.5 45 45.0523 45 44.5V33.375ZM5.07822 41.75C4.41309 41.75 3.93332 41.1128 4.11719 40.4735L5.15999 36.8485C5.28323 36.4201 5.6752 36.125 6.12101 36.125H6.43053C7.09566 36.125 7.57544 36.7622 7.39156 37.4015L6.34877 41.0265C6.22552 41.4549 5.83355 41.75 5.38774 41.75H5.07822ZM8.95197 41.75C8.28684 41.75 7.80706 41.1128 7.99094 40.4735L9.03374 36.8485C9.15698 36.4201 9.54895 36.125 9.99476 36.125H10.3043C10.9694 36.125 11.4492 36.7622 11.2653 37.4015L10.2225 41.0265C10.0993 41.4549 9.7073 41.75 9.26149 41.75H8.95197ZM12.8276 41.75C12.1625 41.75 11.6827 41.1128 11.8666 40.4735L12.9094 36.8485C13.0326 36.4201 13.4246 36.125 13.8704 36.125H14.1795C14.8447 36.125 15.3245 36.7625 15.1404 37.4018L14.0964 41.0268C13.9731 41.455 13.5812 41.75 13.1355 41.75H12.8276ZM16.7013 41.75C16.0362 41.75 15.5564 41.1128 15.7403 40.4735L16.7831 36.8485C16.9064 36.4201 17.2983 36.125 17.7441 36.125H18.0518C18.7169 36.125 19.1967 36.7622 19.0128 37.4015L17.97 41.0265C17.8468 41.4549 17.4548 41.75 17.009 41.75H16.7013ZM21.8458 41.0268C21.7224 41.455 21.3306 41.75 20.8849 41.75H20.577C19.9118 41.75 19.4321 41.1128 19.6159 40.4735L20.6587 36.8485C20.782 36.4201 21.174 36.125 21.6198 36.125H21.9289C22.5941 36.125 23.0739 36.7625 22.8898 37.4018L21.8458 41.0268ZM39.375 40.8125C38.34 40.8125 37.5 39.9725 37.5 38.9375C37.5 37.9025 38.34 37.0625 39.375 37.0625C40.4119 37.0625 41.25 37.9025 41.25 38.9375C41.25 39.9725 40.4119 40.8125 39.375 40.8125ZM40.2135 10.1953C40.6566 10.8599 40.1802 11.75 39.3815 11.75H5.61852C4.81982 11.75 4.34343 10.8599 4.78647 10.1953L10.9531 0.9453C11.1386 0.667102 11.4508 0.5 11.7852 0.5H33.2148C33.5492 0.5 33.8614 0.667101 34.0469 0.9453L40.2135 10.1953Z" fill="#DB7676"/>
</svg>
