<svg width="35" height="36" viewBox="0 0 35 36" fill="none" xmlns="http://www.w3.org/2000/svg">
<path d="M29.0833 15.0833C30.7402 15.0833 32.0833 16.4265 32.0833 18.0833V29.5833C32.0833 31.2402 30.7402 32.5833 29.0833 32.5833H17.5833C15.9265 32.5833 14.5833 31.2402 14.5833 29.5833V18.0833C14.5833 16.4265 15.9265 15.0833 17.5833 15.0833H29.0833ZM35 15.1667C35 13.5098 33.6569 12.1667 32 12.1667H14.6667C13.0098 12.1667 11.6667 13.5098 11.6667 15.1667V32.5C11.6667 34.1569 13.0098 35.5 14.6667 35.5H32C33.6569 35.5 35 34.1569 35 32.5V15.1667ZM8.83334 6.33333C7.17648 6.33333 5.83333 7.67648 5.83333 9.33333V28.2083C5.83333 29.0137 6.48625 29.6667 7.29167 29.6667C8.09708 29.6667 8.75 29.0138 8.75 28.2083V12.25C8.75 10.5931 10.0931 9.25 11.75 9.25H27.7083C28.5138 9.25 29.1667 8.59708 29.1667 7.79167C29.1667 6.98625 28.5138 6.33333 27.7083 6.33333H8.83334ZM3 0.5C1.34315 0.5 0 1.84315 0 3.5V22.375C0 23.1804 0.652918 23.8333 1.45833 23.8333C2.26375 23.8333 2.91667 23.1804 2.91667 22.375V6.41666C2.91667 4.75981 4.25981 3.41667 5.91667 3.41667H21.875C22.6804 3.41667 23.3333 2.76375 23.3333 1.95833C23.3333 1.15292 22.6804 0.5 21.875 0.5H3Z" fill="#DBC576"/>
</svg>
