<svg width="45" height="45" viewBox="0 0 45 45" fill="none" xmlns="http://www.w3.org/2000/svg">
<path d="M45 16C45 15.4477 44.5523 15 44 15H1C0.447715 15 0 15.4477 0 16V27.125C0 27.6773 0.447715 28.125 1 28.125H44C44.5523 28.125 45 27.6773 45 27.125V16ZM5.07822 24.375C4.41309 24.375 3.93332 23.7378 4.11719 23.0985L5.15999 19.4735C5.28323 19.0451 5.6752 18.75 6.12101 18.75H6.43053C7.09566 18.75 7.57544 19.3872 7.39156 20.0265L6.34877 23.6515C6.22552 24.0799 5.83355 24.375 5.38774 24.375H5.07822ZM8.95197 24.375C8.28684 24.375 7.80706 23.7378 7.99094 23.0985L9.03374 19.4735C9.15698 19.0451 9.54895 18.75 9.99476 18.75H10.3043C10.9694 18.75 11.4492 19.3872 11.2653 20.0265L10.2225 23.6515C10.0993 24.0799 9.7073 24.375 9.26149 24.375H8.95197ZM12.8276 24.375C12.1625 24.375 11.6827 23.7378 11.8666 23.0985L12.9094 19.4735C13.0326 19.0451 13.4246 18.75 13.8704 18.75H14.1795C14.8447 18.75 15.3245 19.3875 15.1404 20.0268L14.0964 23.6518C13.9731 24.08 13.5812 24.375 13.1355 24.375H12.8276ZM16.7013 24.375C16.0362 24.375 15.5564 23.7378 15.7403 23.0985L16.7831 19.4735C16.9064 19.0451 17.2983 18.75 17.7441 18.75H18.0518C18.7169 18.75 19.1967 19.3872 19.0128 20.0265L17.97 23.6515C17.8468 24.0799 17.4548 24.375 17.009 24.375H16.7013ZM21.8458 23.6518C21.7224 24.08 21.3306 24.375 20.8849 24.375H20.577C19.9118 24.375 19.4321 23.7378 19.6159 23.0985L20.6587 19.4735C20.782 19.0451 21.174 18.75 21.6198 18.75H21.9289C22.5941 18.75 23.0739 19.3875 22.8898 20.0268L21.8458 23.6518ZM39.375 23.4375C38.34 23.4375 37.5 22.5975 37.5 21.5625C37.5 20.5275 38.34 19.6875 39.375 19.6875C40.4119 19.6875 41.25 20.5275 41.25 21.5625C41.25 22.5975 40.4119 23.4375 39.375 23.4375ZM45 32.875C45 32.3227 44.5523 31.875 44 31.875H1C0.447715 31.875 0 32.3227 0 32.875V44C0 44.5523 0.447715 45 1 45H44C44.5523 45 45 44.5523 45 44V32.875ZM5.07822 41.25C4.41309 41.25 3.93332 40.6128 4.11719 39.9735L5.15999 36.3485C5.28323 35.9201 5.6752 35.625 6.12101 35.625H6.43053C7.09566 35.625 7.57544 36.2622 7.39156 36.9015L6.34877 40.5265C6.22552 40.9549 5.83355 41.25 5.38774 41.25H5.07822ZM8.95197 41.25C8.28684 41.25 7.80706 40.6128 7.99094 39.9735L9.03374 36.3485C9.15698 35.9201 9.54895 35.625 9.99476 35.625H10.3043C10.9694 35.625 11.4492 36.2622 11.2653 36.9015L10.2225 40.5265C10.0993 40.9549 9.7073 41.25 9.26149 41.25H8.95197ZM12.8276 41.25C12.1625 41.25 11.6827 40.6128 11.8666 39.9735L12.9094 36.3485C13.0326 35.9201 13.4246 35.625 13.8704 35.625H14.1795C14.8447 35.625 15.3245 36.2625 15.1404 36.9018L14.0964 40.5268C13.9731 40.955 13.5812 41.25 13.1355 41.25H12.8276ZM16.7013 41.25C16.0362 41.25 15.5564 40.6128 15.7403 39.9735L16.7831 36.3485C16.9064 35.9201 17.2983 35.625 17.7441 35.625H18.0518C18.7169 35.625 19.1967 36.2622 19.0128 36.9015L17.97 40.5265C17.8468 40.9549 17.4548 41.25 17.009 41.25H16.7013ZM21.8458 40.5268C21.7224 40.955 21.3306 41.25 20.8849 41.25H20.577C19.9118 41.25 19.4321 40.6128 19.6159 39.9735L20.6587 36.3485C20.782 35.9201 21.174 35.625 21.6198 35.625H21.9289C22.5941 35.625 23.0739 36.2625 22.8898 36.9018L21.8458 40.5268ZM39.375 40.3125C38.34 40.3125 37.5 39.4725 37.5 38.4375C37.5 37.4025 38.34 36.5625 39.375 36.5625C40.4119 36.5625 41.25 37.4025 41.25 38.4375C41.25 39.4725 40.4119 40.3125 39.375 40.3125ZM40.2135 9.6953C40.6566 10.3599 40.1802 11.25 39.3815 11.25H5.61852C4.81982 11.25 4.34343 10.3599 4.78647 9.6953L10.9531 0.4453C11.1386 0.167102 11.4508 0 11.7852 0H33.2148C33.5492 0 33.8614 0.167101 34.0469 0.4453L40.2135 9.6953Z" fill="#76DB81"/>
</svg>
