<svg width="45" height="46" viewBox="0 0 45 46" fill="none" xmlns="http://www.w3.org/2000/svg">
<path d="M42.9961 26.7145C44.1958 26.3002 45 25.1823 45 23.9131V22.0873C45 20.8179 44.1956 19.6994 42.9957 19.2851C41.035 18.6081 39.7163 17.9991 38.9644 16.1844C38.2104 14.366 38.7162 12.992 39.6204 11.1327C40.1753 9.99159 39.9533 8.63264 39.056 7.73538L37.7652 6.44458C36.8677 5.54703 35.5084 5.32544 34.3671 5.88107C32.5187 6.78098 31.1367 7.28958 29.3175 6.53562C27.502 5.7831 26.8895 4.45857 26.2147 2.50457C25.8003 1.30461 24.682 0.5 23.4125 0.5H21.5865C20.3175 0.5 19.1996 1.30398 18.7855 2.50352C18.1131 4.45162 17.4996 5.78237 15.6844 6.53562C13.8658 7.29111 12.4938 6.78654 10.6334 5.881C9.49194 5.32537 8.1322 5.54717 7.23451 6.44486L5.94431 7.73507C5.04689 8.63248 4.82502 9.99164 5.38056 11.1327C6.28318 12.9867 6.79037 14.3628 6.03562 16.1825C5.28237 17.9992 3.95162 18.613 2.00351 19.2855C0.803989 19.6996 0 20.8175 0 22.0865V23.9124C0 25.1819 0.804725 26.3 2.00481 26.7142C3.95001 27.3855 5.28283 28.0015 6.03562 29.8156C6.79014 31.6407 6.27569 33.0356 5.38271 34.8661C4.82615 36.0069 5.04694 37.3659 5.94433 38.2637L7.23434 39.5543C8.13208 40.4524 9.492 40.6741 10.6338 40.1182C12.483 39.218 13.8647 38.7104 15.6825 39.4644C17.4987 40.2166 18.1118 41.5437 18.7856 43.4955C19.1998 44.6954 20.318 45.5 21.5875 45.5H23.4131C24.6823 45.5 25.8001 44.6957 26.2149 43.4962C26.8883 41.5487 27.5051 40.2196 29.3297 39.4591C29.3303 39.4589 29.3309 39.4587 29.3316 39.4587C29.3322 39.4587 29.3328 39.4586 29.3334 39.4584C31.1393 38.7089 32.504 39.2143 34.3647 40.1209C35.506 40.677 36.8658 40.4546 37.7633 39.5567L39.0534 38.2661C39.951 37.3681 40.1721 36.0082 39.6161 34.8668C38.7151 33.0172 38.2079 31.6375 38.9606 29.8194C39.7137 28.0031 41.0484 27.387 42.9961 26.7145ZM22.5 30.5C18.3581 30.5 15 27.1419 15 23C15 18.8581 18.3581 15.5 22.5 15.5C26.6419 15.5 30 18.8581 30 23C30 27.1419 26.6419 30.5 22.5 30.5Z" fill="#7A80F0"/>
</svg>
