<svg width="87" height="89" viewBox="0 0 87 89" fill="none" xmlns="http://www.w3.org/2000/svg">
<path d="M87 32.8333C87 31.1765 85.6569 29.8333 84 29.8333H3C1.34315 29.8333 0 31.1765 0 32.8333V52.5C0 54.1569 1.34315 55.5 3 55.5H84C85.6569 55.5 87 54.1569 87 52.5V32.8333ZM10.1931 48.1667C8.71744 48.1667 7.65142 46.7552 8.05508 45.3358L9.91914 38.7814C10.1909 37.8259 11.0637 37.1667 12.0572 37.1667C13.5328 37.1667 14.5988 38.5781 14.1952 39.9975L12.3311 46.5519C12.0594 47.5075 11.1865 48.1667 10.1931 48.1667ZM17.6823 48.1667C16.2067 48.1667 15.1407 46.7552 15.5443 45.3358L17.4084 38.7814C17.6801 37.8259 18.553 37.1667 19.5464 37.1667C21.0221 37.1667 22.0881 38.5781 21.6844 39.9975L19.8204 46.5519C19.5486 47.5075 18.6758 48.1667 17.6823 48.1667ZM25.1733 48.1667C23.6986 48.1667 22.6333 46.7561 23.0367 45.3377L24.9014 38.7811C25.1731 37.8257 26.0457 37.1667 27.0389 37.1667C28.5146 37.1667 29.5804 38.5784 29.1763 39.9976L27.3096 46.5536C27.0378 47.5082 26.1658 48.1667 25.1733 48.1667ZM32.6622 48.1667C31.1877 48.1667 30.1225 46.7563 30.5258 45.3381L32.3909 38.7802C32.6624 37.8254 33.5346 37.1667 34.5272 37.1667C36.0017 37.1667 37.0669 38.577 36.6635 39.9953L34.7985 46.5532C34.527 47.508 33.6548 48.1667 32.6622 48.1667ZM42.2918 46.5536C42.02 47.5082 41.1479 48.1667 40.1554 48.1667C38.6807 48.1667 37.6154 46.7561 38.0188 45.3377L39.8835 38.7811C40.1552 37.8257 41.0278 37.1667 42.0211 37.1667C43.4967 37.1667 44.5626 38.5784 44.1585 39.9976L42.2918 46.5536ZM76.125 46.3333C74.124 46.3333 72.5 44.6907 72.5 42.6667C72.5 40.6427 74.124 39 76.125 39C78.1296 39 79.75 40.6427 79.75 42.6667C79.75 44.6907 78.1296 46.3333 76.125 46.3333ZM87 65.8333C87 64.1765 85.6569 62.8333 84 62.8333H3C1.34315 62.8333 0 64.1765 0 65.8333V85.5C0 87.1569 1.34315 88.5 3 88.5H84C85.6569 88.5 87 87.1569 87 85.5V65.8333ZM10.1931 81.1667C8.71744 81.1667 7.65142 79.7552 8.05508 78.3358L9.91914 71.7814C10.1909 70.8259 11.0637 70.1667 12.0572 70.1667C13.5328 70.1667 14.5988 71.5781 14.1952 72.9975L12.3311 79.5519C12.0594 80.5075 11.1865 81.1667 10.1931 81.1667ZM17.6823 81.1667C16.2067 81.1667 15.1407 79.7552 15.5443 78.3358L17.4084 71.7814C17.6801 70.8259 18.553 70.1667 19.5464 70.1667C21.0221 70.1667 22.0881 71.5781 21.6844 72.9975L19.8204 79.5519C19.5486 80.5075 18.6758 81.1667 17.6823 81.1667ZM25.1733 81.1667C23.6986 81.1667 22.6333 79.7561 23.0367 78.3377L24.9014 71.7811C25.1731 70.8257 26.0457 70.1667 27.0389 70.1667C28.5146 70.1667 29.5804 71.5784 29.1763 72.9976L27.3096 79.5536C27.0378 80.5082 26.1658 81.1667 25.1733 81.1667ZM32.6622 81.1667C31.1877 81.1667 30.1225 79.7563 30.5258 78.3381L32.3909 71.7802C32.6624 70.8254 33.5346 70.1667 34.5272 70.1667C36.0017 70.1667 37.0669 71.577 36.6635 72.9953L34.7985 79.5532C34.527 80.508 33.6548 81.1667 32.6622 81.1667ZM42.2918 79.5536C42.02 80.5082 41.1479 81.1667 40.1554 81.1667C38.6807 81.1667 37.6154 79.7561 38.0188 78.3377L39.8835 71.7811C40.1552 70.8257 41.0278 70.1667 42.0211 70.1667C43.4967 70.1667 44.5626 71.5784 44.1585 72.9976L42.2918 79.5536ZM76.125 79.3333C74.124 79.3333 72.5 77.6907 72.5 75.6667C72.5 73.6427 74.124 72 76.125 72C78.1296 72 79.75 73.6427 79.75 75.6667C79.75 77.6907 78.1296 79.3333 76.125 79.3333ZM76.6846 17.8491C77.9993 19.8437 76.5687 22.5 74.1797 22.5H12.8203C10.4313 22.5 9.00073 19.8437 10.3154 17.8491L20.8608 1.84906C21.4159 1.00687 22.3571 0.5 23.3657 0.5H63.6343C64.6429 0.5 65.5841 1.00687 66.1392 1.84906L76.6846 17.8491Z" fill="white" fill-opacity="0.5"/>
</svg>
